<?xml version="1.0" encoding="utf-8"?>
<!-- Generator: Adobe Illustrator 16.0.0, SVG Export Plug-In . SVG Version: 6.00 Build 0)  -->
<!DOCTYPE svg PUBLIC "-//W3C//DTD SVG 1.1//EN" "http://www.w3.org/Graphics/SVG/1.1/DTD/svg11.dtd">
<svg version="1.1" id="Layer_1" xmlns="http://www.w3.org/2000/svg" xmlns:xlink="http://www.w3.org/1999/xlink" x="0px" y="0px"
	 width="280px" height="280px" viewBox="0 0 280 280" enable-background="new 0 0 280 280" xml:space="preserve">
<rect x="12.477" y="48.997" fill-rule="evenodd" clip-rule="evenodd" fill="#1D3765" width="260.857" height="175.549"/>
<g>
	<path fill-rule="evenodd" clip-rule="evenodd" fill="#1D3765" d="M280.271,164.765c0,21.833,0,43.664,0,65.497
		c-0.486-0.004-0.974-0.01-1.459-0.01c-91.833,0-183.666,0-275.5-0.001c-0.485,0-0.972-0.017-1.458-0.025
		c12.63-19.997,25.257-39.999,37.905-59.985c0.55-0.87,0.789-1.724,0.783-2.752c-0.037-5.981,0.009-11.964-0.042-17.943
		c-0.01-1.1,0.212-1.492,1.385-1.456c3.038,0.093,6.082-0.03,9.12,0.063c1.188,0.035,1.821-0.358,2.443-1.391
		c12.01-19.951,24.06-39.877,36.125-59.794c0.533-0.881,0.779-1.745,0.774-2.771c-0.028-6.413,0.057-12.827-0.061-19.237
		c-0.033-1.771,0.537-2.11,2.127-2.064c3.827,0.111,7.661-0.021,11.49,0.069c1.256,0.029,1.954-0.405,2.618-1.459
		c6.469-10.267,13.005-20.491,19.476-30.756c0.639-1.012,1.194-1.38,2.432-1.043c24.804,6.747,47.891,17.309,69.026,32.117
		c2.476,1.734,4.846,2.081,7.896,1.73c-4.401-3.404-8.764-6.364-13.206-9.204c-19.657-12.565-40.752-21.783-63.42-27.807
		c1.943-3.003,3.805-5.867,5.653-8.74c3.874-6.024,7.739-12.054,11.609-18.08c44.214,0,88.428,0.007,132.643-0.036
		c1.368-0.001,1.677,0.313,1.676,1.7c-0.04,52.114-0.034,104.231-0.034,156.346c-2.149-4.434-4.285-8.871-6.453-13.294
		c-1.327-2.708-1.401-2.723-4.501-2.049c3.81,7.07,7.133,14.338,10.18,21.737C279.657,164.521,279.861,164.741,280.271,164.765z
		 M175.106,139.229c6.375,0.075,11.887-1.164,17.092-3.759c13.646-6.805,22.028-22.333,19.497-36.586
		c-2.578-14.515-10.89-24.489-24.625-29.083c-13.843-4.629-26.459-1.489-36.944,8.797c-8.06,7.907-12.113,17.793-10.529,29.216
		C142.176,126.41,157.2,139.226,175.106,139.229z M148.976,152.482c0.251,1.154,0.454,2.114,0.672,3.068
		c4.729,20.707,9.468,41.414,14.16,62.132c0.232,1.024,0.53,1.45,1.629,1.434c4.193-0.063,8.39-0.059,12.585-0.002
		c1.055,0.015,1.423-0.29,1.63-1.383c1.743-9.175,3.568-18.332,5.374-27.493c0.546-2.77,1.103-5.536,1.651-8.306
		c0.541,0.915,0.734,1.798,0.912,2.681c2.213,11.021,4.433,22.041,6.622,33.066c0.215,1.081,0.667,1.467,1.806,1.443
		c3.95-0.082,7.906-0.101,11.854,0.007c1.333,0.036,1.723-0.46,1.999-1.677c3.449-15.207,6.961-30.398,10.442-45.597
		c1.466-6.392,2.898-12.791,4.39-19.373c-4.337,0-8.521,0.012-12.708-0.009c-0.839-0.004-0.933,0.507-1.069,1.167
		c-0.947,4.57-1.931,9.134-2.907,13.698c-1.603,7.496-3.208,14.992-4.915,22.973c-0.265-1.126-0.43-1.771-0.566-2.421
		c-2.352-11.304-4.714-22.609-7.038-33.919c-0.233-1.139-0.663-1.567-1.902-1.528c-3.646,0.109-7.298,0.109-10.942-0.001
		c-1.241-0.038-1.68,0.386-1.898,1.528c-1.594,8.326-3.223,16.646-4.851,24.966c-0.731,3.741-1.488,7.475-2.232,11.213
		c-2.615-11.457-4.955-22.886-7.271-34.318c-0.676-3.344-0.644-3.35-4.063-3.35C157.913,152.482,153.487,152.482,148.976,152.482z
		 M83.223,185.741c-0.617-1-0.961-1.542-1.287-2.093c-5.793-9.814-11.584-19.629-17.371-29.445
		c-0.505-0.857-0.946-1.542-2.197-1.521c-5.409,0.093-10.821,0.075-16.231,0.012c-1.243-0.013-1.504,0.43-1.502,1.604
		c0.032,21.085,0.037,42.171-0.006,63.257c-0.003,1.384,0.505,1.599,1.694,1.582c4.315-0.062,8.634-0.095,12.948,0.012
		c1.588,0.039,2.132-0.291,2.118-2.06c-0.09-11.468-0.046-22.936-0.046-34.401c0-0.581,0-1.161,0-1.741
		c0.7,0.624,1.104,1.284,1.492,1.955c6.682,11.563,13.374,23.122,20.024,34.704c0.579,1.007,1.167,1.49,2.4,1.464
		c4.254-0.094,8.512-0.077,12.766-0.011c1.216,0.021,1.533-0.379,1.531-1.579c-0.032-21.147-0.031-42.294-0.001-63.441
		c0.001-1.127-0.31-1.479-1.437-1.464c-4.438,0.061-8.877,0.078-13.313-0.008c-1.324-0.024-1.59,0.419-1.585,1.671
		c0.042,9.741,0.013,19.481,0.006,29.224C83.223,184.047,83.223,184.632,83.223,185.741z M201.818,138.472
		c6.813,0,13.259-0.088,19.699,0.054c2,0.043,3.104-0.544,4.093-2.35c2.791-5.091,5.824-10.043,8.83-15.167
		c3.305,5.524,6.536,10.872,9.698,16.26c0.535,0.911,1.105,1.25,2.153,1.24c5.716-0.055,11.431-0.026,17.145-0.026
		c1.367,0,2.734,0,4.33,0c-0.405-0.72-0.66-1.194-0.937-1.654c-6.635-11.095-13.238-22.211-19.954-33.255
		c-0.938-1.542-0.881-2.573,0.022-4.092c6.017-10.107,11.9-20.294,17.875-30.427c0.755-1.28,0.62-1.587-0.875-1.568
		c-5.106,0.065-10.242,0.359-15.313-0.077c-4.258-0.367-6.815,0.883-8.548,4.938c-1.462,3.419-3.679,6.507-5.68,9.948
		c-2.796-4.667-5.461-9.059-8.056-13.493c-0.552-0.943-1.125-1.37-2.267-1.359c-6.748,0.063-13.496,0.026-20.245,0.044
		c-0.373,0.001-0.837-0.233-1.185,0.288c0.224,0.409,0.446,0.838,0.691,1.251c6.231,10.408,12.448,20.827,18.725,31.207
		c0.649,1.072,0.729,1.83,0.074,2.953c-5.09,8.732-10.106,17.508-15.141,26.273C205.286,132.368,203.634,135.285,201.818,138.472z
		 M94.414,102.923c0,11.225,0.026,22.449-0.032,33.673c-0.008,1.511,0.195,2.128,1.926,2.088c5.713-0.134,11.433-0.109,17.148-0.012
		c1.578,0.027,1.876-0.51,1.857-1.989c-0.079-6.474,0.004-12.95-0.065-19.425c-0.014-1.332,0.238-1.772,1.661-1.749
		c5.775,0.095,11.554,0.008,17.331,0.066c1.161,0.012,1.545-0.26,1.529-1.508c-0.071-5.426-0.088-10.854,0.008-16.28
		c0.025-1.458-0.453-1.722-1.754-1.708c-5.777,0.065-11.555,0-17.333,0.053c-1.095,0.01-1.494-0.257-1.438-1.428
		c0.095-2.03,0.124-4.076-0.007-6.102c-0.093-1.428,0.384-1.722,1.718-1.709c7.237,0.069,14.475,0.004,21.711,0.061
		c1.234,0.01,1.535-0.356,1.439-1.566c-0.432-5.406-0.823-10.816-1.131-16.23c-0.083-1.446-0.635-1.751-1.982-1.747
		c-13.623,0.052-27.245,0.059-40.868-0.007c-1.492-0.007-1.757,0.467-1.75,1.847C94.437,80.474,94.414,91.698,94.414,102.923z
		 M248.33,150.327c-1.702,0.008-3.39,0.12-5.087,0.343c-10.333,1.361-17.608,8.272-18.965,18.646
		c-1.052,8.039,1.404,14.557,8.895,18.835c2.387,1.362,4.88,2.46,7.491,3.274c3.472,1.084,6.987,2.032,10.422,3.218
		c2.347,0.812,3.137,2.271,2.991,4.682c-0.109,1.812-1.33,3.313-3.383,3.875c-6.156,1.684-11.526-1.057-13.15-6.608
		c-0.215-0.74-0.387-1.102-1.348-0.87c-4.48,1.083-8.984,2.077-13.496,3.014c-0.956,0.2-1.146,0.406-0.891,1.413
		c1.093,4.317,2.977,8.187,6.032,11.412c7.691,8.111,22.492,10.104,32.625,4.421c8.755-4.911,13.078-14.272,11.032-24.206
		c-1.517-7.353-6.308-11.732-13.114-13.982c-4.546-1.502-9.196-2.677-13.765-4.111c-2.356-0.74-3.353-2.071-3.29-3.871
		c0.065-1.931,1.759-4.039,3.7-4.604c4.191-1.219,8.873,0.981,10.565,5.12c0.46,1.126,0.875,1.308,1.96,0.918
		c3.706-1.33,7.419-2.665,11.189-3.776c1.525-0.45,1.655-1.023,1.172-2.379C266.649,155.947,258.381,150.264,248.33,150.327z
		 M103.636,185.738c0,10.547,0.026,21.092-0.031,31.639c-0.008,1.359,0.289,1.757,1.688,1.75c13.015-0.06,26.029-0.061,39.043,0
		c1.474,0.008,1.828-0.434,1.798-1.859c-0.09-4.131-0.098-8.266,0.002-12.395c0.036-1.501-0.319-1.983-1.883-1.964
		c-7.602,0.087-15.204,0.019-22.806,0.063c-1.066,0.005-1.496-0.195-1.455-1.399c0.095-2.771,0.102-5.552-0.001-8.323
		c-0.047-1.279,0.416-1.498,1.546-1.488c5.959,0.052,11.92-0.015,17.879,0.055c1.355,0.016,1.888-0.238,1.833-1.772
		c-0.128-3.512-0.118-7.031-0.004-10.544c0.05-1.508-0.316-1.99-1.87-1.964c-5.898,0.095-11.798-0.014-17.696,0.074
		c-1.416,0.021-1.758-0.417-1.687-1.771c0.111-2.089,0.128-4.197-0.004-6.286c-0.092-1.445,0.412-1.729,1.739-1.715
		c7.419,0.063,14.839,0.001,22.258,0.057c1.344,0.011,1.93-0.222,1.884-1.786c-0.118-4.005-0.093-8.018-0.01-12.024
		c0.028-1.32-0.388-1.631-1.64-1.627c-13.015,0.043-26.03,0.048-39.043-0.007c-1.324-0.005-1.576,0.396-1.57,1.652
		C103.657,164.646,103.636,175.193,103.636,185.738z"/>
	<path fill-rule="evenodd" clip-rule="evenodd" fill="#C22227" d="M280.271,230.339c0,16.109-0.01,32.218,0.023,48.327
		c0.004,1.021-0.121,1.335-1.275,1.335c-92.581-0.038-185.162-0.038-277.741,0c-1.156,0-1.28-0.315-1.278-1.335
		c0.035-16.109,0.024-32.218,0.024-48.327c0.728-0.028,1.454-0.085,2.181-0.085c91.961-0.003,183.924-0.003,275.885,0
		C278.816,230.254,279.544,230.311,280.271,230.339z M61.396,251.416c0-2.726-0.044-5.021,0.019-7.313
		c0.029-1.026-0.128-1.538-1.354-1.48c-2.242,0.107-4.494,0.074-6.739,0.011c-0.96-0.028-1.238,0.273-1.232,1.23
		c0.035,7.41,0.032,14.818,0.001,22.228c-0.004,0.885,0.271,1.144,1.137,1.121c2.125-0.054,4.26-0.14,6.373,0.022
		c1.614,0.123,1.894-0.479,1.829-1.926c-0.116-2.605-0.079-5.222-0.005-7.832c0.048-1.679,0.374-3.263,2.264-3.972
		c3.835-1.436,6.274,0.129,6.357,4.187c0.058,2.794,0.045,5.589,0,8.381c-0.014,0.854,0.211,1.164,1.109,1.141
		c2.367-0.058,4.739-0.083,7.104,0.01c1.108,0.044,1.143-0.492,1.137-1.313c-0.023-3.521,0.018-7.045-0.018-10.567
		c-0.039-3.736-1.665-5.679-5.385-6.381C69.638,248.14,65.421,248.281,61.396,251.416z M245.188,261.337
		c-2.672,0-5.102,0.025-7.527-0.013c-0.828-0.013-1.421,0.196-2.071,0.793c-1.829,1.683-6.522,1.542-8.132-0.13
		c-0.565-0.586-1.06-1.318-0.817-2.111c0.261-0.854,1.146-0.411,1.73-0.416c5.284-0.038,10.567-0.054,15.851,0.005
		c1.128,0.012,1.448-0.302,1.413-1.43c-0.129-4.141-2.312-6.868-5.979-8.307c-5.563-2.183-11.259-2.257-16.854-0.074
		c-4.069,1.588-6.057,4.531-6.027,8.414c0.028,3.688,2.146,6.567,6.229,8.064c5.684,2.083,11.427,1.945,17.078-0.136
		C242.255,265.196,244.129,263.857,245.188,261.337z M142.213,251.308c0.598-2.358-0.438-2.597-2.041-2.484
		c-1.813,0.13-3.647,0.111-5.464,0.003c-1.261-0.074-1.495,0.424-1.482,1.562c0.054,5.042,0.051,10.083,0.002,15.126
		c-0.011,1.066,0.217,1.521,1.39,1.478c2.244-0.087,4.496-0.071,6.742-0.006c1.024,0.031,1.363-0.276,1.343-1.327
		c-0.059-3.036-0.068-6.075,0.016-9.111c0.069-2.527,1.472-3.614,4.427-3.635c2.87-0.021,3.891,0.813,3.978,3.492
		c0.096,2.975,0.094,5.953,0.051,8.928c-0.016,1.103,0.16,1.658,1.465,1.592c2.242-0.112,4.496-0.075,6.741-0.01
		c0.951,0.026,1.241-0.253,1.226-1.217c-0.054-3.705,0.024-7.41-0.041-11.116c-0.049-2.815-1.468-4.875-4.138-5.54
		C151.605,247.836,146.819,247.534,142.213,251.308z M119.49,266.86c-1.797-1.688-1.615-3.523-1.601-5.32
		c0.017-2.066,0.05-4.133,0.034-6.199c-0.02-2.598-1.081-4.555-3.578-5.571c-6.051-2.461-12.113-1.898-18.126,0.083
		c-1.645,0.54-2.868,1.767-3.592,3.423c-0.335,0.768-0.467,1.242,0.659,1.223c2.188-0.04,4.376-0.018,6.564-0.009
		c0.507,0.002,0.865-0.135,1.258-0.533c1.394-1.418,5.234-1.95,6.983-1.095c0.61,0.299,0.979,0.725,0.987,1.394
		c0.008,0.765-0.592,1.054-1.183,1.178c-1.007,0.212-2.038,0.316-3.059,0.451c-3.238,0.424-6.542,0.503-9.637,1.71
		c-2.613,1.02-3.921,2.663-3.765,4.773c0.184,2.492,1.901,3.73,4.025,4.397c4.03,1.263,8.016,0.973,11.909-0.678
		c0.879-0.372,1.984-1.651,2.4,0.484c0.025,0.129,0.396,0.276,0.606,0.277C113.266,266.867,116.157,266.86,119.49,266.86z
		 M185.973,251.32c0.486-2.13-0.157-2.636-1.779-2.5c-1.872,0.159-3.769,0.094-5.65,0.015c-1.051-0.044-1.331,0.313-1.322,1.337
		c0.048,5.168,0.052,10.337-0.001,15.505c-0.012,1.075,0.364,1.336,1.36,1.304c2.067-0.063,4.141-0.113,6.201,0.015
		c1.439,0.089,1.855-0.36,1.794-1.794c-0.118-2.671-0.079-5.351-0.013-8.024c0.063-2.477,0.919-3.86,2.8-4.113
		c4.275-0.573,5.703,0.09,5.826,4.361c0.078,2.734,0.05,5.473,0.007,8.208c-0.013,0.883,0.133,1.313,1.169,1.281
		c2.37-0.076,4.743-0.049,7.114-0.012c0.78,0.014,1.062-0.236,1.052-1.036c-0.054-3.83,0.035-7.662-0.114-11.488
		c-0.117-3.001-1.527-4.739-4.463-5.425C195.177,247.836,190.452,247.61,185.973,251.32z M40.504,255.122
		c-0.521-2.842-2.206-4.364-4.43-5.445c-2.511-1.218-5.216-1.581-7.946-1.643c-3.98-0.092-7.881,0.371-11.35,2.569
		c-2.887,1.829-4.432,4.473-4.292,7.909c0.14,3.434,2.064,5.828,5.087,7.17c6.008,2.666,12.113,2.588,18.16,0.062
		c1.961-0.821,3.423-2.259,4.291-4.247c0.377-0.867,0.317-1.31-0.828-1.26c-1.818,0.081-3.644,0.042-5.464,0.015
		c-1.371-0.02-2.688-0.186-3.485,1.432c-0.395,0.802-1.452,1.024-2.38,1.13c-4.273,0.49-6.511-2.022-5.665-6.313
		c0.376-1.909,1.393-3.15,3.326-3.627c2.026-0.498,3.872-0.428,5.208,1.454c0.321,0.454,0.57,0.824,1.251,0.813
		C34.774,255.093,37.564,255.122,40.504,255.122z M267.845,254.783c0-3.645-0.028-7.289,0.019-10.933
		c0.013-0.936-0.248-1.284-1.219-1.259c-2.307,0.059-4.617,0.064-6.924-0.003c-1.053-0.03-1.33,0.336-1.324,1.357
		c0.039,7.352,0.038,14.699,0,22.048c-0.005,0.973,0.291,1.246,1.235,1.223c2.306-0.062,4.617-0.072,6.924,0.004
		c1.046,0.034,1.329-0.291,1.313-1.322C267.809,262.194,267.845,258.487,267.845,254.783z"/>
	<path fill-rule="evenodd" clip-rule="evenodd" fill="#FCFCFD" d="M145.986-0.277c-3.87,5.943-7.735,11.888-11.609,17.829
		c-1.848,2.833-3.709,5.656-5.653,8.618c22.668,5.939,43.763,15.03,63.42,27.42c4.442,2.8,8.805,5.719,13.206,9.076
		c-3.051,0.346-5.421,0.004-7.896-1.706c-21.135-14.603-44.222-25.018-69.026-31.671c-1.238-0.332-1.793,0.031-2.432,1.029
		c-6.471,10.122-13.007,20.204-19.476,30.328c-0.664,1.04-1.362,1.467-2.618,1.438c-3.829-0.088-7.663,0.042-11.49-0.067
		c-1.59-0.046-2.16,0.289-2.127,2.035c0.118,6.321,0.033,12.646,0.061,18.97c0.005,1.012-0.241,1.865-0.774,2.732
		c-12.064,19.64-24.114,39.289-36.125,58.962c-0.622,1.019-1.254,1.406-2.443,1.371c-3.038-0.092-6.082,0.029-9.12-0.062
		c-1.173-0.035-1.395,0.351-1.385,1.436c0.052,5.896,0.005,11.795,0.042,17.693c0.006,1.016-0.233,1.856-0.783,2.714
		C27.11,187.577,14.484,207.3,1.854,227.021c-0.609,0.012-1.219,0.022-1.829,0.035c0-1.582,0-3.163,0-4.743
		c0.111-0.205,0.28-0.396,0.326-0.615c5.512-26.322,11.006-52.65,16.521-78.974c8.15-38.891,16.303-77.782,24.517-116.66
		c0.335-1.58-0.016-1.73-1.39-1.519c-13.617,2.102-26.962,5.289-39.974,9.842c0-1.216,0-2.433,0-3.649
		c0.35-0.08,0.708-0.13,1.046-0.241c13.08-4.288,26.429-7.412,40.077-9.215c1.093-0.145,1.408-0.633,1.571-1.58
		c0.402-2.325,0.917-4.629,1.309-6.956c0.731-4.35,1.878-8.625,2.339-13.024c11.19,0,22.38,0,33.57,0
		c-2.503,6.386-5.006,12.774-7.579,19.335c8.813,0.047,17.281,0.51,25.715,1.494c1.024,0.12,1.345-0.407,1.717-1.165
		c3.218-6.563,6.465-13.112,9.705-19.664C121.659-0.277,133.823-0.277,145.986-0.277z M1.168,224.546
		c1.064-0.177,1.082-0.989,1.338-1.526C26.608,172.598,50.688,122.166,74.77,71.734c7.41-15.517,14.822-31.033,22.209-46.562
		c0.309-0.649,1.338-1.571-0.585-1.769c-7.746-0.794-15.506-1.162-23.288-1.257c-1.368-0.017-1.951,0.366-2.415,1.72
		C64.941,40.639,59.1,57.38,53.293,74.134C35.937,124.208,18.585,174.283,1.168,224.546z"/>
	<path fill-rule="evenodd" clip-rule="evenodd" fill="#1D3765" d="M0.024,34.388c13.012-4.554,26.357-7.741,39.974-9.842
		c1.374-0.212,1.725-0.062,1.39,1.519c-8.214,38.877-16.366,77.769-24.517,116.66c-5.516,26.323-11.009,52.651-16.521,78.974
		c-0.045,0.219-0.214,0.41-0.326,0.615C0.024,159.67,0.024,97.029,0.024,34.388z"/>
	<path fill-rule="evenodd" clip-rule="evenodd" fill="#1D3765" d="M46.368-0.277c-0.461,4.398-1.608,8.674-2.339,13.024
		c-0.392,2.326-0.907,4.631-1.309,6.956c-0.163,0.947-0.479,1.436-1.571,1.58C27.5,23.085,14.151,26.209,1.071,30.498
		c-0.339,0.111-0.697,0.162-1.046,0.241c0-9.89,0.025-19.78-0.033-29.669c-0.007-1.184,0.323-1.376,1.417-1.373
		C16.395-0.265,31.381-0.277,46.368-0.277z"/>
	<path fill-rule="evenodd" clip-rule="evenodd" fill="#1D3765" d="M109.496-0.277c-3.24,6.552-6.487,13.101-9.705,19.664
		c-0.373,0.758-0.693,1.285-1.717,1.165c-8.434-0.984-16.902-1.447-25.715-1.494c2.572-6.561,5.076-12.949,7.579-19.335
		C89.791-0.277,99.643-0.277,109.496-0.277z"/>
	<path fill-rule="evenodd" clip-rule="evenodd" fill="#F9FAFB" d="M280.271,162.468c-0.409-0.023-0.613-0.24-0.774-0.627
		c-3.047-7.296-6.37-14.463-10.18-21.435c3.1-0.664,3.174-0.649,4.501,2.02c2.168,4.362,4.304,8.739,6.453,13.109
		C280.271,157.846,280.271,160.157,280.271,162.468z"/>
	<path fill-rule="evenodd" clip-rule="evenodd" fill="#FCFCFD" d="M175.106,137.288c-17.906-0.003-32.931-12.64-35.509-30.978
		c-1.584-11.265,2.469-21.013,10.529-28.811c10.485-10.142,23.102-13.238,36.944-8.673c13.735,4.529,22.047,14.365,24.625,28.678
		c2.531,14.054-5.852,29.367-19.497,36.076C186.993,136.141,181.481,137.362,175.106,137.288z M169.34,101.205
		c0,4.803-0.017,9.605,0.006,14.407c0.016,3.826,2.841,6.738,6.445,6.692c3.564-0.045,6.31-2.894,6.316-6.623
		c0.017-9.544,0.017-19.088,0-28.631c-0.007-3.849-2.928-6.953-6.485-6.958c-3.507-0.007-6.268,3.005-6.279,6.888
		C169.33,91.721,169.34,96.463,169.34,101.205z"/>
	<path fill-rule="evenodd" clip-rule="evenodd" fill="#FCFCFD" d="M148.976,150.357c4.512,0,8.938,0,13.362,0
		c3.42,0,3.388,0.006,4.063,3.302c2.315,11.275,4.655,22.546,7.271,33.842c0.744-3.686,1.501-7.368,2.232-11.057
		c1.628-8.204,3.257-16.407,4.851-24.617c0.219-1.128,0.657-1.546,1.898-1.509c3.645,0.109,7.297,0.109,10.942,0.001
		c1.239-0.038,1.669,0.384,1.902,1.509c2.324,11.151,4.687,22.299,7.038,33.446c0.137,0.642,0.302,1.276,0.566,2.386
		c1.707-7.868,3.313-15.259,4.915-22.653c0.977-4.501,1.96-9,2.907-13.507c0.137-0.649,0.23-1.155,1.069-1.15
		c4.187,0.021,8.371,0.01,12.708,0.01c-1.491,6.489-2.924,12.799-4.39,19.104c-3.481,14.985-6.993,29.967-10.442,44.961
		c-0.276,1.201-0.666,1.689-1.999,1.654c-3.948-0.107-7.904-0.089-11.854-0.008c-1.139,0.023-1.591-0.355-1.806-1.423
		c-2.189-10.872-4.409-21.737-6.622-32.605c-0.178-0.872-0.371-1.741-0.912-2.645c-0.549,2.729-1.105,5.459-1.651,8.191
		c-1.806,9.033-3.631,18.063-5.374,27.109c-0.207,1.077-0.575,1.379-1.63,1.364c-4.195-0.056-8.392-0.06-12.585,0.002
		c-1.099,0.016-1.396-0.403-1.629-1.414c-4.692-20.429-9.432-40.847-14.16-61.268C149.43,152.442,149.227,151.495,148.976,150.357z"
		/>
	<path fill-rule="evenodd" clip-rule="evenodd" fill="#F9FAFB" d="M83.223,183.154c0-1.095,0-1.672,0-2.248
		c0.007-9.606,0.036-19.213-0.006-28.818c-0.005-1.233,0.261-1.671,1.585-1.646c4.437,0.084,8.876,0.067,13.313,0.009
		c1.127-0.016,1.438,0.33,1.437,1.442c-0.029,20.853-0.03,41.706,0.001,62.559c0.002,1.185-0.315,1.577-1.531,1.558
		c-4.254-0.066-8.512-0.082-12.766,0.01c-1.233,0.026-1.821-0.449-2.4-1.443c-6.65-11.422-13.342-22.818-20.024-34.221
		c-0.387-0.66-0.792-1.313-1.492-1.928c0,0.572,0,1.144,0,1.715c0,11.309-0.043,22.616,0.046,33.925
		c0.014,1.743-0.53,2.069-2.118,2.03c-4.314-0.105-8.633-0.072-12.948-0.012c-1.189,0.017-1.697-0.195-1.694-1.561
		c0.043-20.792,0.038-41.584,0.006-62.376c-0.002-1.158,0.259-1.596,1.502-1.582c5.41,0.062,10.822,0.079,16.231-0.013
		c1.251-0.021,1.692,0.655,2.197,1.499c5.787,9.681,11.578,19.359,17.371,29.037C82.262,181.634,82.606,182.166,83.223,183.154z"/>
	<path fill-rule="evenodd" clip-rule="evenodd" fill="#FCFCFD" d="M201.818,136.542c1.815-3.143,3.468-6.021,5.138-8.888
		c5.034-8.644,10.051-17.297,15.141-25.908c0.655-1.107,0.575-1.855-0.074-2.912c-6.276-10.236-12.493-20.509-18.725-30.771
		c-0.245-0.408-0.468-0.832-0.691-1.235c0.348-0.513,0.812-0.282,1.185-0.284c6.749-0.018,13.497,0.018,20.245-0.042
		c1.142-0.011,1.715,0.409,2.267,1.339c2.595,4.373,5.26,8.703,8.056,13.305c2.001-3.393,4.218-6.437,5.68-9.81
		c1.732-3.998,4.29-5.231,8.548-4.87c5.07,0.431,10.206,0.141,15.313,0.076c1.495-0.019,1.63,0.285,0.875,1.547
		c-5.975,9.992-11.858,20.038-17.875,30.004c-0.903,1.497-0.961,2.514-0.022,4.035c6.716,10.891,13.319,21.852,19.954,32.792
		c0.276,0.455,0.531,0.924,0.937,1.633c-1.596,0-2.963,0-4.33,0c-5.714,0-11.429-0.029-17.145,0.024
		c-1.048,0.009-1.618-0.323-2.153-1.222c-3.162-5.314-6.394-10.587-9.698-16.035c-3.006,5.053-6.039,9.936-8.83,14.956
		c-0.989,1.781-2.093,2.36-4.093,2.316C215.077,136.455,208.631,136.542,201.818,136.542z"/>
	<path fill-rule="evenodd" clip-rule="evenodd" fill="#FCFCFD" d="M94.414,101.487c0-11.068,0.023-22.137-0.029-33.206
		c-0.007-1.361,0.258-1.828,1.75-1.821c13.623,0.065,27.245,0.058,40.868,0.006c1.347-0.004,1.899,0.297,1.982,1.723
		c0.308,5.338,0.699,10.674,1.131,16.004c0.096,1.194-0.205,1.555-1.439,1.545c-7.236-0.057-14.474,0.007-21.711-0.06
		c-1.334-0.012-1.812,0.278-1.718,1.686c0.131,1.998,0.103,4.015,0.007,6.017c-0.056,1.155,0.343,1.417,1.438,1.407
		c5.777-0.051,11.556,0.013,17.333-0.051c1.301-0.014,1.779,0.247,1.754,1.684c-0.097,5.35-0.079,10.703-0.008,16.053
		c0.016,1.23-0.368,1.498-1.529,1.487c-5.777-0.057-11.556,0.029-17.331-0.064c-1.423-0.023-1.675,0.411-1.661,1.724
		c0.069,6.385-0.014,12.772,0.065,19.156c0.019,1.459-0.279,1.987-1.857,1.961c-5.715-0.097-11.435-0.12-17.148,0.011
		c-1.731,0.041-1.934-0.569-1.926-2.058C94.44,123.624,94.414,112.556,94.414,101.487z"/>
	<path fill-rule="evenodd" clip-rule="evenodd" fill="#FCFCFD" d="M248.33,148.233c10.051-0.063,18.319,5.54,21.587,14.556
		c0.483,1.336,0.354,1.901-1.172,2.346c-3.771,1.097-7.483,2.412-11.189,3.724c-1.085,0.384-1.5,0.205-1.96-0.905
		c-1.692-4.081-6.374-6.252-10.565-5.049c-1.941,0.557-3.635,2.636-3.7,4.539c-0.063,1.774,0.934,3.088,3.29,3.817
		c4.568,1.414,9.219,2.572,13.765,4.055c6.807,2.22,11.598,6.536,13.114,13.788c2.046,9.795-2.277,19.026-11.032,23.869
		c-10.133,5.602-24.934,3.639-32.625-4.361c-3.056-3.178-4.939-6.994-6.032-11.251c-0.255-0.993-0.065-1.197,0.891-1.394
		c4.512-0.925,9.016-1.904,13.496-2.972c0.961-0.229,1.133,0.127,1.348,0.856c1.624,5.475,6.994,8.178,13.15,6.517
		c2.053-0.554,3.273-2.034,3.383-3.82c0.146-2.377-0.645-3.817-2.991-4.616c-3.435-1.17-6.95-2.105-10.422-3.173
		c-2.611-0.804-5.104-1.887-7.491-3.231c-7.49-4.217-9.946-10.644-8.895-18.57c1.356-10.229,8.632-17.044,18.965-18.387
		C244.94,148.351,246.628,148.238,248.33,148.233z"/>
	<path fill-rule="evenodd" clip-rule="evenodd" fill="#FCFCFD" d="M103.636,183.152c0-10.4,0.021-20.8-0.028-31.199
		c-0.006-1.236,0.246-1.634,1.57-1.629c13.013,0.055,26.028,0.05,39.043,0.007c1.252-0.005,1.668,0.304,1.64,1.604
		c-0.083,3.953-0.108,7.908,0.01,11.858c0.046,1.544-0.54,1.771-1.884,1.763c-7.419-0.057-14.838,0.005-22.258-0.057
		c-1.327-0.013-1.831,0.266-1.739,1.689c0.132,2.061,0.115,4.139,0.004,6.2c-0.072,1.334,0.271,1.768,1.687,1.746
		c5.898-0.085,11.798,0.021,17.696-0.074c1.554-0.023,1.92,0.451,1.87,1.938c-0.114,3.463-0.124,6.935,0.004,10.397
		c0.056,1.514-0.478,1.764-1.833,1.748c-5.959-0.069-11.92-0.003-17.879-0.055c-1.13-0.009-1.593,0.207-1.546,1.468
		c0.103,2.733,0.096,5.475,0.001,8.208c-0.041,1.188,0.389,1.385,1.455,1.378c7.602-0.042,15.204,0.026,22.806-0.061
		c1.563-0.019,1.919,0.456,1.883,1.937c-0.1,4.072-0.092,8.15-0.002,12.224c0.03,1.406-0.324,1.84-1.798,1.833
		c-13.014-0.061-26.028-0.06-39.043,0c-1.399,0.006-1.696-0.384-1.688-1.726C103.662,203.95,103.636,193.552,103.636,183.152z"/>
	<path fill-rule="evenodd" clip-rule="evenodd" fill="#FCFCFD" d="M61.396,251.416c4.026-3.135,8.243-3.276,12.598-2.453
		c3.72,0.702,5.347,2.645,5.385,6.381c0.035,3.522-0.005,7.046,0.018,10.567c0.006,0.82-0.029,1.356-1.137,1.313
		c-2.365-0.093-4.737-0.067-7.104-0.01c-0.898,0.023-1.123-0.286-1.109-1.141c0.045-2.792,0.057-5.587,0-8.381
		c-0.083-4.058-2.522-5.622-6.357-4.187c-1.89,0.709-2.216,2.293-2.264,3.972c-0.074,2.61-0.111,5.227,0.005,7.832
		c0.065,1.446-0.214,2.049-1.829,1.926c-2.113-0.162-4.249-0.076-6.373-0.022c-0.865,0.022-1.141-0.236-1.137-1.121
		c0.031-7.409,0.034-14.817-0.001-22.228c-0.005-0.957,0.272-1.259,1.232-1.23c2.246,0.063,4.498,0.097,6.739-0.011
		c1.226-0.058,1.382,0.454,1.354,1.48C61.351,246.396,61.396,248.69,61.396,251.416z"/>
	<path fill-rule="evenodd" clip-rule="evenodd" fill="#FEF8F8" d="M245.188,261.337c-1.06,2.521-2.934,3.859-5.106,4.66
		c-5.651,2.081-11.395,2.219-17.078,0.136c-4.082-1.497-6.2-4.377-6.229-8.064c-0.029-3.883,1.958-6.826,6.027-8.414
		c5.595-2.183,11.291-2.108,16.854,0.074c3.667,1.438,5.85,4.166,5.979,8.307c0.035,1.128-0.285,1.441-1.413,1.43
		c-5.283-0.059-10.566-0.043-15.851-0.005c-0.585,0.005-1.47-0.438-1.73,0.416c-0.242,0.793,0.252,1.525,0.817,2.111
		c1.609,1.672,6.303,1.813,8.132,0.13c0.65-0.597,1.243-0.806,2.071-0.793C240.087,261.362,242.517,261.337,245.188,261.337z
		 M226.111,255.881c3.146,0,6.167-0.051,9.184,0.022c1.385,0.033,1.436-0.524,0.854-1.471c-1.439-2.339-3.766-2.358-6.093-2.174
		C227.926,252.43,226.689,253.58,226.111,255.881z"/>
	<path fill-rule="evenodd" clip-rule="evenodd" fill="#FEF8F8" d="M142.213,251.308c4.606-3.773,9.393-3.472,14.213-2.267
		c2.67,0.665,4.089,2.725,4.138,5.54c0.065,3.706-0.013,7.411,0.041,11.116c0.016,0.964-0.274,1.243-1.226,1.217
		c-2.245-0.065-4.499-0.103-6.741,0.01c-1.305,0.066-1.48-0.489-1.465-1.592c0.043-2.975,0.045-5.953-0.051-8.928
		c-0.087-2.68-1.107-3.513-3.978-3.492c-2.955,0.021-4.357,1.107-4.427,3.635c-0.084,3.036-0.074,6.075-0.016,9.111
		c0.021,1.051-0.318,1.358-1.343,1.327c-2.246-0.065-4.498-0.081-6.742,0.006c-1.173,0.044-1.4-0.411-1.39-1.478
		c0.049-5.043,0.052-10.084-0.002-15.126c-0.012-1.138,0.221-1.636,1.482-1.562c1.816,0.108,3.65,0.127,5.464-0.003
		C141.775,248.711,142.811,248.949,142.213,251.308z"/>
	<path fill-rule="evenodd" clip-rule="evenodd" fill="#FEF8F8" d="M119.49,266.86c-3.333,0-6.224,0.007-9.116-0.012
		c-0.21-0.001-0.581-0.148-0.606-0.277c-0.417-2.136-1.521-0.856-2.4-0.484c-3.893,1.65-7.878,1.94-11.909,0.678
		c-2.124-0.667-3.842-1.905-4.025-4.397c-0.156-2.11,1.152-3.754,3.765-4.773c3.095-1.207,6.398-1.286,9.637-1.71
		c1.021-0.135,2.052-0.239,3.059-0.451c0.591-0.124,1.191-0.413,1.183-1.178c-0.007-0.669-0.377-1.095-0.987-1.394
		c-1.749-0.855-5.589-0.323-6.983,1.095c-0.393,0.398-0.751,0.535-1.258,0.533c-2.188-0.009-4.376-0.031-6.564,0.009
		c-1.126,0.02-0.995-0.455-0.659-1.223c0.725-1.656,1.948-2.883,3.592-3.423c6.013-1.981,12.075-2.544,18.126-0.083
		c2.498,1.017,3.559,2.974,3.578,5.571c0.016,2.066-0.018,4.133-0.034,6.199C117.875,263.337,117.693,265.172,119.49,266.86z
		 M104.311,263.603c0.443,0.101,1.323-0.222,2.185-0.474c1.871-0.549,2.628-1.734,2.554-3.663c-0.028-0.711-0.039-1.117-1.011-0.891
		c-1.823,0.424-3.699,0.609-5.534,0.988c-1.046,0.214-2.261,0.404-2.207,1.918c0.051,1.422,1.217,1.666,2.252,1.982
		C102.945,263.584,103.392,263.537,104.311,263.603z"/>
	<path fill-rule="evenodd" clip-rule="evenodd" fill="#FCFCFD" d="M185.973,251.32c4.479-3.71,9.204-3.484,13.98-2.367
		c2.936,0.686,4.346,2.424,4.463,5.425c0.149,3.826,0.061,7.658,0.114,11.488c0.01,0.8-0.271,1.05-1.052,1.036
		c-2.371-0.037-4.744-0.064-7.114,0.012c-1.036,0.032-1.182-0.398-1.169-1.281c0.043-2.735,0.071-5.474-0.007-8.208
		c-0.123-4.271-1.551-4.935-5.826-4.361c-1.881,0.253-2.736,1.637-2.8,4.113c-0.066,2.674-0.105,5.354,0.013,8.024
		c0.062,1.434-0.354,1.883-1.794,1.794c-2.061-0.128-4.134-0.078-6.201-0.015c-0.996,0.032-1.372-0.229-1.36-1.304
		c0.053-5.168,0.049-10.337,0.001-15.505c-0.009-1.024,0.271-1.381,1.322-1.337c1.882,0.079,3.778,0.145,5.65-0.015
		C185.815,248.685,186.459,249.19,185.973,251.32z"/>
	<path fill-rule="evenodd" clip-rule="evenodd" fill="#FEF8F8" d="M40.504,255.122c-2.939,0-5.729-0.029-8.519,0.02
		c-0.681,0.011-0.93-0.359-1.251-0.813c-1.336-1.882-3.182-1.952-5.208-1.454c-1.933,0.477-2.949,1.718-3.326,3.627
		c-0.846,4.29,1.392,6.803,5.665,6.313c0.928-0.105,1.986-0.328,2.38-1.13c0.797-1.617,2.114-1.451,3.485-1.432
		c1.821,0.027,3.646,0.066,5.464-0.015c1.146-0.05,1.206,0.393,0.828,1.26c-0.867,1.988-2.33,3.426-4.291,4.247
		c-6.046,2.526-12.152,2.604-18.16-0.062c-3.022-1.342-4.947-3.736-5.087-7.17c-0.139-3.437,1.406-6.08,4.292-7.909
		c3.469-2.198,7.37-2.661,11.35-2.569c2.729,0.062,5.435,0.425,7.946,1.643C38.298,250.758,39.983,252.28,40.504,255.122z"/>
	<path fill-rule="evenodd" clip-rule="evenodd" fill="#FEF8F8" d="M267.845,254.783c0,3.704-0.036,7.411,0.023,11.115
		c0.017,1.031-0.267,1.356-1.313,1.322c-2.307-0.076-4.618-0.065-6.924-0.004c-0.944,0.023-1.24-0.25-1.235-1.223
		c0.038-7.349,0.039-14.696,0-22.048c-0.006-1.021,0.271-1.388,1.324-1.357c2.307,0.067,4.617,0.062,6.924,0.003
		c0.971-0.025,1.231,0.323,1.219,1.259C267.816,247.494,267.845,251.139,267.845,254.783z"/>
	<path fill-rule="evenodd" clip-rule="evenodd" fill="#1D3765" d="M1.168,224.546c17.417-50.263,34.769-100.338,52.125-150.412
		C59.1,57.38,64.941,40.639,70.691,23.867c0.464-1.354,1.047-1.737,2.415-1.72c7.782,0.095,15.542,0.463,23.288,1.257
		c1.923,0.197,0.894,1.119,0.585,1.769c-7.387,15.529-14.8,31.045-22.209,46.562C50.688,122.166,26.608,172.598,2.506,223.02
		C2.25,223.557,2.232,224.369,1.168,224.546z"/>
	<path fill-rule="evenodd" clip-rule="evenodd" fill="#1D3765" d="M169.34,101.205c0-4.742-0.01-9.483,0.003-14.225
		c0.012-3.883,2.772-6.895,6.279-6.888c3.558,0.005,6.479,3.109,6.485,6.958c0.017,9.543,0.017,19.087,0,28.631
		c-0.007,3.729-2.752,6.578-6.316,6.623c-3.604,0.046-6.43-2.866-6.445-6.692C169.323,110.81,169.34,106.007,169.34,101.205z"/>
	<path fill-rule="evenodd" clip-rule="evenodd" fill="#C22227" d="M226.111,255.881c0.578-2.301,1.814-3.451,3.945-3.622
		c2.327-0.185,4.653-0.165,6.093,2.174c0.581,0.946,0.53,1.504-0.854,1.471C232.278,255.83,229.258,255.881,226.111,255.881z"/>
	<path fill-rule="evenodd" clip-rule="evenodd" fill="#C22227" d="M104.311,263.603c-0.919-0.065-1.366-0.019-1.761-0.139
		c-1.035-0.316-2.201-0.561-2.252-1.982c-0.054-1.514,1.161-1.704,2.207-1.918c1.835-0.379,3.711-0.564,5.534-0.988
		c0.972-0.227,0.982,0.18,1.011,0.891c0.074,1.929-0.684,3.114-2.554,3.663C105.634,263.381,104.754,263.703,104.311,263.603z"/>
</g>
</svg>
